<?xml version="1.0" encoding="UTF-8" standalone="no"?>
<!-- Created with Inkscape (http://www.inkscape.org/) -->

<svg
   xmlns:dc="http://purl.org/dc/elements/1.1/"
   xmlns:cc="http://creativecommons.org/ns#"
   xmlns:rdf="http://www.w3.org/1999/02/22-rdf-syntax-ns#"
   xmlns:svg="http://www.w3.org/2000/svg"
   xmlns="http://www.w3.org/2000/svg"
   xmlns:xlink="http://www.w3.org/1999/xlink"
   xmlns:sodipodi="http://sodipodi.sourceforge.net/DTD/sodipodi-0.dtd"
   xmlns:inkscape="http://www.inkscape.org/namespaces/inkscape"
   width="72.256477mm"
   height="42.679577mm"
   viewBox="0 0 72.256477 42.679577"
   version="1.1"
   id="svg8"
   inkscape:version="0.92.4 (unknown)"
   sodipodi:docname="drawing.svg">
  <defs
     id="defs2">
    <linearGradient
       inkscape:collect="always"
       id="linearGradient4550">
      <stop
         style="stop-color:#008080;stop-opacity:1;"
         offset="0"
         id="stop4546" />
      <stop
         style="stop-color:#008080;stop-opacity:0;"
         offset="1"
         id="stop4548" />
    </linearGradient>
    <linearGradient
       inkscape:collect="always"
       xlink:href="#linearGradient4550"
       id="linearGradient4552"
       x1="71.248512"
       y1="114.72099"
       x2="73.327385"
       y2="118.50074"
       gradientUnits="userSpaceOnUse" />
  </defs>
  <sodipodi:namedview
     id="base"
     pagecolor="#ffffff"
     bordercolor="#666666"
     borderopacity="1.0"
     inkscape:pageopacity="0.0"
     inkscape:pageshadow="2"
     inkscape:zoom="3.959798"
     inkscape:cx="97.419009"
     inkscape:cy="75.41083"
     inkscape:document-units="mm"
     inkscape:current-layer="layer1"
     showgrid="false"
     inkscape:window-width="1920"
     inkscape:window-height="1056"
     inkscape:window-x="0"
     inkscape:window-y="24"
     inkscape:window-maximized="1" />
  <metadata
     id="metadata5">
    <rdf:RDF>
      <cc:Work
         rdf:about="">
        <dc:format>image/svg+xml</dc:format>
        <dc:type
           rdf:resource="http://purl.org/dc/dcmitype/StillImage" />
        <dc:title></dc:title>
      </cc:Work>
    </rdf:RDF>
  </metadata>
  <g
     inkscape:label="Layer 1"
     inkscape:groupmode="layer"
     id="layer1"
     transform="translate(-54.158927,-106.31137)">
    <path
       style="fill:none;stroke:#000000;stroke-width:0.26458332px;stroke-linecap:butt;stroke-linejoin:miter;stroke-opacity:1"
       d="m 55.940475,139.7619 c -0.503968,-0.50396 -1.084273,-0.94173 -1.511903,-1.5119 -0.151191,-0.20159 0.93413,0.17818 0.755951,0 -0.19921,-0.19921 -0.556741,-0.17877 -0.755951,-0.37798 -0.554366,-0.55436 0.718153,-0.34018 0.755951,-0.37797 0.01521,-0.0152 0,-1.3731 0,-1.51191 v -0.37798 c 0,-0.12599 0.05635,-0.26528 0,-0.37797 -0.07968,-0.15937 -0.298291,-0.21861 -0.377975,-0.37798 -0.04969,-0.0994 0,-1.31425 0,-1.5119 0,-0.2629 -0.06835,-1.75319 0,-1.88988 0.07968,-0.15937 0.298291,-0.21861 0.377975,-0.37798 0.05752,-0.11503 0,-0.9637 0,-1.13393 v -2.64583 -0.37798 c 0,-0.12599 -0.08909,-0.28888 0,-0.37797 0.08909,-0.0891 0.288886,0.0891 0.377976,0 0.08909,-0.0891 0,-0.25199 0,-0.37798 0,-0.26791 -0.04886,-2.17013 0,-2.26786 0.786525,-1.57304 -0.02609,0.40407 0.755952,-0.37797 0.08909,-0.0891 0.08909,-0.28889 0,-0.37798 -0.08909,-0.0891 -0.288885,0.0891 -0.377976,0 -0.08909,-0.0891 0,-0.25198 0,-0.37797 0,-0.126 -0.08909,-0.28889 0,-0.37798 0.08909,-0.0891 0.288888,0.0891 0.377976,0 0.178181,-0.17818 -0.178178,-0.57777 0,-0.75595 0.08909,-0.0891 0.288888,0.0891 0.377976,0 0.07727,-0.0773 -0.07493,-0.98407 0,-1.13393 0.07968,-0.15937 0.298294,-0.21861 0.377978,-0.37798 0.05634,-0.11269 -0.05635,-0.26528 0,-0.37798 0.07968,-0.15936 0.298291,-0.2186 0.377976,-0.37797 0.112689,-0.22538 -0.178181,-0.57777 0,-0.75595 0.08909,-0.0891 0.265284,0.0563 0.377976,0 1.573046,-0.78653 -0.404072,0.0261 0.377976,-0.75596 0.08909,-0.0891 0.288885,0.0891 0.377975,0 0.18899,-0.18898 -0.188986,-0.94494 0,-1.13393 0.782048,-0.78204 -0.03057,1.19507 0.755952,-0.37797 0.112691,-0.22538 -0.178178,-0.57777 0,-0.75595 0.08909,-0.0891 0.288888,0.0891 0.377978,0 0.08909,-0.0891 0,-0.25199 0,-0.37798 0.125992,0 0.288886,0.0891 0.377976,0 0.782045,-0.78205 -1.19507,0.0306 0.377976,-0.75595 0.112691,-0.0563 0.288885,0.0891 0.377976,0 0.08909,-0.0891 -0.08909,-0.28889 0,-0.37798 0.08909,-0.0891 0.288885,0.0891 0.377976,0 0.08909,-0.0891 -0.08909,-0.28888 0,-0.37797 0.08909,-0.0891 0.288888,0.0891 0.377976,0 0.08909,-0.0891 -0.08909,-0.28889 0,-0.37798 0.08909,-0.0891 0.288887,0.0891 0.377975,0 0.08909,-0.0891 -0.08909,-0.28889 0,-0.37798 0.08909,-0.0891 0.288888,0.0891 0.377979,0 0.08909,-0.0891 -0.08909,-0.28888 0,-0.37797 0.08909,-0.0891 0.288885,0.0891 0.377976,0 0.08909,-0.0891 -0.08909,-0.28889 0,-0.37798 0.08909,-0.0891 0.265284,0.0563 0.377975,0 0.318739,-0.15937 0.437214,-0.59658 0.755952,-0.75595 0.112691,-0.0564 0.265287,0.0563 0.377976,0 0.159369,-0.0797 0.218609,-0.29829 0.377976,-0.37798 0.112691,-0.0563 0.288888,0.0891 0.377978,0 0.08909,-0.0891 -0.08909,-0.28888 0,-0.37797 0.178178,-0.17818 0.577771,0.17818 0.755952,0 0.08909,-0.0891 -0.08909,-0.28889 0,-0.37798 0.178178,-0.17818 0.577773,0.17818 0.755951,0 0.08909,-0.0891 -0.08909,-0.28888 0,-0.37798 0.178181,-0.17818 0.530572,0.1127 0.755952,0 0.159369,-0.0797 0.218609,-0.29829 0.377978,-0.37797 0.149863,-0.0749 1.056656,0.0773 1.133928,0 0.08909,-0.0891 -0.08909,-0.28889 0,-0.37798 0.07727,-0.0773 0.984065,0.0749 1.133927,0 0.159369,-0.0797 0.21861,-0.29829 0.377979,-0.37798 0.161427,-0.0807 1.740461,0 1.889879,0 h 3.023809 c 0.170225,0 1.0189,-0.0575 1.13393,0 0.159369,0.0797 0.218607,0.2983 0.377976,0.37798 0.302381,0.15119 0.831548,-0.15119 1.133927,0 0.159369,0.0797 0.218609,0.29829 0.377979,0.37798 0.112688,0.0563 0.265284,-0.0563 0.377975,0 0.15937,0.0797 0.218607,0.29829 0.377976,0.37797 0.22538,0.1127 0.577773,-0.17818 0.755952,0 0.08909,0.0891 -0.08909,0.28889 0,0.37798 0.08909,0.0891 0.265287,-0.0563 0.377976,0 0.159369,0.0797 0.218609,0.29829 0.377975,0.37798 0.225383,0.11269 0.530572,-0.11269 0.755955,0 0.318735,0.15937 0.437213,0.59658 0.755951,0.75595 0.225383,0.11269 0.530572,-0.11269 0.755952,0 0.159369,0.0797 0.218609,0.29829 0.377976,0.37797 0.112691,0.0564 0.288888,-0.0891 0.377978,0 0.08909,0.0891 -0.08909,0.28889 0,0.37798 0.08909,0.0891 0.265285,-0.0563 0.377976,0 0.159369,0.0797 0.218607,0.29829 0.377976,0.37798 0.112691,0.0563 0.265284,-0.0563 0.377976,0 0.159369,0.0797 0.218606,0.29829 0.377975,0.37797 0.112692,0.0563 0.288888,-0.0891 0.377976,0 0.08909,0.0891 -0.05635,0.26529 0,0.37798 0.786524,1.57305 -0.02609,-0.40407 0.755954,0.37798 0.782045,0.78204 -1.19507,-0.0306 0.377976,0.75595 1.007936,0 -0.125992,-0.12599 0.377976,0.37798 0.08909,0.0891 0.288885,-0.0891 0.377976,0 0.08909,0.0891 -0.08909,0.28888 0,0.37797 0.08909,0.0891 0.288885,-0.0891 0.377976,0 0.08909,0.0891 -0.08909,0.28889 0,0.37798 0.08909,0.0891 0.288888,-0.0891 0.377976,0 0.08909,0.0891 -0.08909,0.28888 0,0.37797 0.782047,0.78205 -0.03057,-1.19507 0.755954,0.37798 0.05634,0.11269 -0.08909,0.28889 0,0.37797 0.08909,0.0891 0.288885,-0.0891 0.377976,0 0.08909,0.0891 -0.08909,0.28889 0,0.37798 0.08909,0.0891 0.288885,-0.0891 0.377975,0 0.08909,0.0891 -0.08909,0.28889 0,0.37798 0.08909,0.0891 0.265285,-0.0563 0.377976,0 1.573046,0.78652 -0.404069,-0.0261 0.377976,0.75595 0.08909,0.0891 0.288888,-0.0891 0.377976,0 0.08909,0.0891 -0.08909,0.28889 0,0.37798 0.08909,0.0891 0.288888,-0.0891 0.377976,0 0.08909,0.0891 -0.08909,0.28888 0,0.37797 0.08909,0.0891 0.288888,-0.0891 0.377978,0 0.178178,0.17818 -0.178181,0.57778 0,0.75595 0.08909,0.0891 0.265285,-0.0563 0.377976,0 1.573046,0.78653 -0.404072,-0.0261 0.377976,0.75596 0.782045,0.78204 -0.03057,-1.19507 0.755951,0.37797 0.05635,0.1127 -0.08909,0.28889 0,0.37798 0.782048,0.78205 -0.03057,-1.19507 0.755952,0.37798 0.05635,0.11269 -0.08909,0.28888 0,0.37797 0.782047,0.78205 -0.03057,-1.19507 0.755954,0.37798 0.05635,0.11269 -0.05634,0.26528 0,0.37798 0.07969,0.15936 0.251984,0.25198 0.377976,0.37797 0.125992,0.12599 0.218607,0.29829 0.377976,0.37798 0.112691,0.0563 0.288885,-0.0891 0.377976,0 0.782047,0.78204 -1.19507,-0.0306 0.377975,0.75595 0.112692,0.0563 0.288888,-0.0891 0.377976,0 0.08909,0.0891 -0.08909,0.28889 0,0.37797 0.08909,0.0891 0.288888,-0.0891 0.377979,0 0.08909,0.0891 -0.08909,0.28889 0,0.37798 0.08909,0.0891 0.265284,-0.0563 0.377975,0 0.15937,0.0797 0.251984,0.25199 0.377976,0.37798 0.222303,0.2223 1.336871,1.42439 1.511904,1.5119 0.112691,0.0564 0.265287,-0.0563 0.377978,0 0.159366,0.0797 0.229722,0.27914 0.377976,0.37798 0.299096,0.1994 1.934156,1.02269 2.267856,1.13393 0.11953,0.0398 0.26529,-0.0564 0.37798,0 1.72985,0.86492 -1.60391,-0.15666 1.13392,0.75595 0.23906,0.0797 0.53058,-0.11269 0.75596,0 0.15937,0.0797 0.21861,0.29829 0.37797,0.37798 0.11269,0.0563 0.25845,-0.0399 0.37798,0 0.26727,0.0891 0.48264,0.30964 0.75595,0.37797 0.24446,0.0611 0.51149,-0.0611 0.75595,0 0.27332,0.0683 0.48264,0.30965 0.75596,0.37798 0.24446,0.0611 1.45643,-2.04548 1.70089,-1.98438 0.54663,0.13666 0.0203,2.60367 0.56696,2.74033 0.751,4.13284 1.47945,-2.56757 1.70089,-2.45685 0.15937,0.0797 0.69108,8.23579 1.41742,5.95313 0.22301,0.1115 -0.35448,-5.37836 1.5119,2.64584 2.14149,1.07074 -1.88636,-7.98388 0.18899,-7.46504 2.25769,0.35178 0.75596,3.02381 0.75596,3.02381 1.47288,4.12435 1.69167,-1.45807 1.79538,-1.22842 l 1.32291,2.92932 0.75596,-2.26786 c 0.0847,-0.25416 2.17013,0.0489 2.26786,0 0.15937,-0.0797 0.2186,-0.29829 0.37797,-0.37798 0.11269,-0.0563 0.26529,0.0564 0.37798,0 0.15937,-0.0797 0.2186,-0.29829 0.37797,-0.37797 0.11269,-0.0563 0.28889,0.0891 0.37798,0 0.18899,-0.18899 -0.18899,-0.94494 0,-1.13393 0.0891,-0.0891 0.28889,0.0891 0.37798,0 0.0891,-0.0891 -0.0891,-0.28889 0,-0.37798 0.0891,-0.0891 0.28888,0.0891 0.37797,0 0.18899,-0.18899 -0.18899,-0.94494 0,-1.13393 0.0891,-0.0891 0.28889,0.0891 0.37798,0 0.0891,-0.0891 -0.0564,-0.26528 0,-0.37797 0.0797,-0.15937 0.29829,-0.21861 0.37798,-0.37798 0.11269,-0.22538 -0.17818,-0.57777 0,-0.75595 0.0891,-0.0891 0.28888,0.0891 0.37797,0 0.0773,-0.0773 -0.0749,-0.98406 0,-1.13393 0.0797,-0.15937 0.29829,-0.21861 0.37798,-0.37798 0.0563,-0.11269 -0.0563,-0.26528 0,-0.37797 0.0797,-0.15937 0.29829,-0.21861 0.37797,-0.37798 0.15119,-0.30238 -0.15119,-0.83155 0,-1.13393 0.0797,-0.15937 0.2983,-0.2186 0.37798,-0.37797 0.0563,-0.11269 0,-0.25199 0,-0.37798 0,-0.26791 -0.0489,-2.17013 0,-2.26786 0.0797,-0.15937 0.29829,-0.2186 0.37798,-0.37797 0.0575,-0.11503 0,-0.96371 0,-1.13393 v -2.64584 -0.37797 c 0,-0.12599 0.0891,-0.28889 0,-0.37798 -0.0891,-0.0891 -0.28889,0.0891 -0.37798,0 -0.17818,-0.17818 0.11269,-0.53057 0,-0.75595 -0.0797,-0.15937 -0.29829,-0.21861 -0.37798,-0.37797 -0.0749,-0.14987 0.0773,-1.05666 0,-1.13393 -0.0891,-0.0891 -0.28888,0.0891 -0.37797,0 -0.17818,-0.17818 0.11269,-0.53058 0,-0.75596 -0.0797,-0.15937 -0.29829,-0.2186 -0.37798,-0.37797 -0.11269,-0.22538 0.17818,-0.57778 0,-0.75596 -0.0891,-0.0891 -0.28888,0.0891 -0.37797,0 -0.0891,-0.0891 0.0563,-0.26528 0,-0.37797 -1.25359,-1.25359 0.17818,0.35636 -0.37798,-0.75595 -0.15937,-0.31874 -0.59659,-0.43722 -0.75595,-0.75596 -0.0564,-0.11269 0.0891,-0.28888 0,-0.37797 -0.0891,-0.0891 -0.28889,0.0891 -0.37798,0 -0.0891,-0.0891 0.0891,-0.28889 0,-0.37798 -0.0891,-0.0891 -0.28889,0.0891 -0.37798,0 -0.17817,-0.17818 0.17818,-0.57777 0,-0.75595 -0.0891,-0.0891 -0.26528,0.0563 -0.37797,0 -1.57305,-0.78652 0.40407,0.0261 -0.37798,-0.75595 -0.0891,-0.0891 -0.26528,0.0563 -0.37797,0 -0.31874,-0.15937 -0.43722,-0.59659 -0.75596,-0.75595 -0.11269,-0.0563 -0.28888,0.0891 -0.37797,0 -0.0891,-0.0891 0.0891,-0.28889 0,-0.37798 -0.0891,-0.0891 -0.37798,0.12599 -0.37798,0 0,-0.12599 0.50397,0 0.37798,0 -2.14187,0 -0.126,-0.25199 -0.75596,0.37798 -0.0891,0.0891 -0.26528,-0.0563 -0.37797,0 -0.15937,0.0797 -0.21861,0.29829 -0.37798,0.37797 -0.11269,0.0563 -0.26528,-0.0563 -0.37797,0 -0.15937,0.0797 -0.21861,0.29829 -0.37798,0.37798 -0.11269,0.0563 -0.26529,-0.0564 -0.37798,0 -0.15936,0.0797 -0.2186,0.29829 -0.37797,0.37797 -0.11269,0.0564 -0.28889,-0.0891 -0.37798,0 -0.0891,0.0891 0.0891,0.28889 0,0.37798 -0.0891,0.0891 -0.26528,-0.0564 -0.37797,0 -0.15937,0.0797 -0.21861,0.29829 -0.37798,0.37797 -0.11269,0.0564 -0.26529,-0.0563 -0.37798,0 -0.31873,0.15937 -0.43721,0.59659 -0.75595,0.75596 -0.11269,0.0563 -0.26529,-0.0563 -0.37798,0 -0.15937,0.0797 -0.2186,0.29829 -0.37797,0.37797 -0.11269,0.0563 -0.26529,-0.0563 -0.37798,0 -0.15937,0.0797 -0.2186,0.2983 -0.37797,0.37798 -0.1127,0.0564 -0.25199,0 -0.37798,0 -0.12599,0.12599 -0.21861,0.29829 -0.37798,0.37798 -0.22538,0.11269 -0.53057,-0.11269 -0.75595,0 -0.15937,0.0797 -0.21861,0.29829 -0.37798,0.37797 -0.11269,0.0564 -0.26528,-0.0563 -0.37797,0 -0.31874,0.15937 -0.43722,0.59659 -0.75595,0.75595 -0.22539,0.1127 -0.57778,-0.17817 -0.75596,0 -0.0891,0.0891 0.0891,0.28889 0,0.37798 -0.0891,0.0891 -0.28888,-0.0891 -0.37797,0 -0.0891,0.0891 0.0891,0.28889 0,0.37798 -0.0891,0.0891 -0.28889,-0.0891 -0.37798,0 -0.0891,0.0891 0.0563,0.26528 0,0.37797 -0.18597,0.37194 -1.32593,1.13997 -1.5119,1.51191 -0.0564,0.11269 0.0891,0.28889 0,0.37798 -0.17818,0.17817 -0.57778,-0.17819 -0.75596,0 -0.17817,0.17817 0.17818,0.57777 0,0.75595 -0.0891,0.0891 -0.26528,-0.0564 -0.37797,0 -0.31874,0.15937 -0.43722,0.59658 -0.75595,0.75595 -0.1127,0.0563 -0.28889,-0.0891 -0.37798,0 -0.17818,0.17818 0.17818,0.57777 0,0.75595 -0.17818,0.17818 -0.57777,-0.17818 -0.75595,0 -0.0891,0.0891 0.0563,0.26529 0,0.37798 -0.15937,0.31873 -0.59659,0.43721 -0.75596,0.75595 -0.0563,0.11269 0.0891,0.28889 0,0.37798 -0.0891,0.0891 -0.28888,-0.0891 -0.37797,0 -0.78205,0.78204 1.19507,-0.0306 -0.37798,0.75595 -0.11269,0.0563 -0.28889,-0.0891 -0.37797,0 -0.17818,0.17818 0.11269,0.53057 0,0.75595 -0.15937,0.31874 -0.59659,0.43722 -0.75596,0.75595 -0.26068,0.52137 0.45775,0.33809 -0.37797,0.75596 -0.11269,0.0563 -0.28889,-0.0891 -0.37798,0 -0.0773,0.0773 0.0749,0.98406 0,1.13393 -0.0797,0.15936 -0.29829,0.2186 -0.37797,0.37797 -0.0563,0.11269 0.0563,0.26529 0,0.37798 -0.0797,0.15937 -0.2983,0.2186 -0.37798,0.37797 -0.0564,0.11269 0.0563,0.26529 0,0.37798 -0.15937,0.31874 -0.596586,0.43721 -0.755952,0.75595 -0.112691,0.22538 0.112689,0.53057 0,0.75595 -0.159369,0.31874 -0.596585,0.43722 -0.755954,0.75596 -0.112689,0.22538 0.112691,0.53057 0,0.75595 -0.159369,0.31874 -0.596583,0.43721 -0.755952,0.75595 -0.13054,0.26108 0.132678,1.75721 0,1.88988 -0.08909,0.0891 -0.288885,-0.0891 -0.377976,0 -0.08909,0.0891 0,0.25199 0,0.37798 v 0.37798 2.26785 0.37798 c 0,0.12599 0.05635,0.26528 0,0.37797 -0.07968,0.15937 -0.298291,0.21861 -0.377976,0.37798 -0.05635,0.11269 0,0.25198 0,0.37798 v 0.37797 2.26786 c 0,0.12599 -0.08909,0.28888 0,0.37798 0.08909,0.0891 0.288886,-0.0891 0.377976,0 0.178179,0.17818 -0.178181,0.57777 0,0.75595 0.08909,0.0891 0.288886,-0.0891 0.377976,0 0.103423,0.10342 -0.102523,1.30686 0,1.5119 1.253591,1.25359 -0.178178,-0.35636 0.377976,0.75595 0.07968,0.15937 0.298291,0.21861 0.377976,0.37798 0.05634,0.11269 -0.05635,0.26529 0,0.37798 0.159369,0.31873 0.596585,0.43721 0.755954,0.75595 0.05634,0.11269 -0.08909,0.28889 0,0.37798 0.08909,0.0891 0.288885,-0.0891 0.377976,0 0.08909,0.0891 -0.05635,0.26528 0,0.37797 0.07968,0.15937 0.298296,0.21861 0.377976,0.37798 0.0563,0.11269 -0.0891,0.28889 0,0.37797 0.0891,0.0891 0.28888,-0.0891 0.37798,0 0.0891,0.0891 -0.0891,0.28889 0,0.37798 0.0891,0.0891 0.28888,-0.0891 0.37797,0 0.0891,0.0891 -0.0563,0.26529 0,0.37798 0.0797,0.15937 0.29829,0.2186 0.37798,0.37797 0.0563,0.11269 -0.0891,0.28889 0,0.37798 0.0891,0.0891 0.28888,-0.0891 0.37797,0 0.0891,0.0891 -0.0891,0.28888 0,0.37798 0.0891,0.0891 0.28889,-0.0891 0.37798,0 0.0891,0.0891 0,0.25198 0,0.37797 0.12599,0 0.26529,-0.0563 0.37798,0 1.57304,0.78653 -0.40407,-0.0261 0.37797,0.75596 0.0891,0.0891 0.28889,-0.0891 0.37798,0 0.0891,0.0891 -0.0891,0.28888 0,0.37797 0.0891,0.0891 0.28888,-0.0891 0.37797,0 0.0891,0.0891 -0.0891,0.28889 0,0.37798 0.0891,0.0891 0.28889,-0.0891 0.37798,0 0.0891,0.0891 -0.0891,0.28888 0,0.37797 0.17818,0.17818 0.57777,-0.17818 0.75595,0 0.0891,0.0891 -0.0891,0.28889 0,0.37798 0.0891,0.0891 0.26529,-0.0564 0.37798,0 1.25359,1.25359 -0.35636,-0.17818 0.75595,0.37797 0.15937,0.0797 0.50397,0.25199 0.37798,0.37798 -0.12599,0.12599 -0.25199,-0.25198 -0.37798,-0.37798"
       id="path3713"
       inkscape:connector-curvature="0"
       sodipodi:nodetypes="cccccssccsccscscssccccsccccccsccccccccscccccccccccccccccccscccccccccccssccccccccccccccsccccccccccccccccccccscccccccccccscccccsccccccccccccccccccccccccccccscscccccscccscccscccccccsccscsccccccccsccccccccscsccccssccccccccccccccccccccccccccccccccscccssccccccscccccccccccccccsccsccscsscccccccccccccsccccccsccccccccccscccsc" />
    <flowRoot
       xml:space="preserve"
       id="flowRoot3715"
       style="font-style:normal;font-weight:normal;font-size:40px;line-height:1.25;font-family:sans-serif;letter-spacing:0px;word-spacing:0px;fill:#000000;fill-opacity:1;stroke:none"
       transform="scale(0.26458333)"><flowRegion
         id="flowRegion3717"><rect
           id="rect3719"
           width="70"
           height="77.14286"
           x="250.71428"
           y="461.80539" /></flowRegion><flowPara
         id="flowPara3721">HelloN</flowPara></flowRoot>    <text
       xml:space="preserve"
       style="font-style:normal;font-weight:normal;font-size:10.19931984px;line-height:1.25;font-family:sans-serif;letter-spacing:0px;word-spacing:0px;fill:#000000;fill-opacity:1;stroke:none;stroke-width:0.25498301"
       x="95.54792"
       y="104.00066"
       id="text3725"
       transform="matrix(0.93551191,0.23144052,-0.24919645,1.0072836,0,0)"><tspan
         sodipodi:role="line"
         id="tspan3723"
         x="95.54792"
         y="104.00066"
         style="stroke-width:0.25498301">Hello</tspan></text>
    <rect
       id="rect3727"
       width="13.51265"
       height="4.6302085"
       x="86.273071"
       y="106.68899"
       style="stroke-width:0.26458332;stroke:none;fill:#ffff00" />
    <path
       style="fill:none;stroke:#000000;stroke-width:0.26458332px;stroke-linecap:butt;stroke-linejoin:miter;stroke-opacity:1"
       d="m 63.688988,133.5253 c 7.559522,10.01636 12.095237,6.42559 12.095237,6.42559 l 8.220982,-5.48065 2.645834,4.6302 c -4.157737,-0.37797 -1.511904,3.3073 -1.511904,3.3073 0,0 3.02381,2.17336 1.700893,0.37797 -1.322917,-1.79538 3.49628,-3.21279 3.49628,-3.21279 l 0.09449,-3.59078 c 0,0 -2.078869,-2.45684 -0.09449,-4.44122 1.984375,-1.98437 3.401785,-1.41741 3.118303,0.85045 -0.283482,2.26786 -2.173363,1.22842 -1.606399,4.06324 0.566965,2.83482 1.511905,2.83482 0.09449,4.72471 -1.41741,1.88988 -2.362351,0 -1.700892,3.1183 0.661458,3.1183 3.118303,2.07887 3.118303,2.07887 0,0 1.228423,-3.49628 3.118304,-1.79539"
       id="path3729"
       inkscape:connector-curvature="0" />
    <path
       style="fill:#ffaaaa;stroke:#d45500;stroke-width:0.57400001;stroke-miterlimit:4;stroke-dasharray:3.44400005, 3.44400005000000009;stroke-dashoffset:0.91840001;stroke-linecap:round;stroke-linejoin:round;paint-order:markers fill stroke"
       d="m 114.064,123.42871 c -1.29065,-0.16757 -2.47833,-0.59444 -3.00381,-1.07961 -0.39089,-0.36091 -0.40597,-0.96688 -0.0332,-1.33191 0.51185,-0.50118 1.84142,-0.97131 3.16918,-1.12061 0.73075,-0.0822 2.12233,-0.0821 2.8342,1.4e-4 2.68828,0.31063 4.17784,1.45295 3.17648,2.436 -0.51488,0.50546 -1.68523,0.92883 -3.03672,1.09854 -0.76133,0.0956 -2.36022,0.0943 -3.10615,-0.003 z"
       id="path3733"
       inkscape:connector-curvature="0" />
    <path
       style="fill:none;stroke-width:0.35714287;stroke:none"
       d="m 431.10795,466.5005 c -2.84219,-1.01195 -4.08419,-1.76145 -6.17286,-3.72512 -2.56393,-2.41047 -3.6222,-4.67458 -3.62677,-7.75922 -0.004,-2.85595 0.43708,-4.26048 2.03093,-6.46374 2.47984,-3.428 7.52659,-5.92907 12.60844,-6.24847 3.68948,-0.2319 6.56489,0.26756 9.53084,1.65549 7.88477,3.68973 10.37727,12.14538 5.2584,17.83879 -3.57788,3.97947 -7.22086,5.41113 -13.66615,5.37069 -3.0429,-0.0191 -4.64287,-0.19845 -5.96283,-0.66842 z"
       id="path3735"
       inkscape:connector-curvature="0"
       transform="scale(0.26458333)" />
    <path
       style="fill:none;stroke-width:0.35714287"
       d="m 326.30483,411.83787 v -8.57143 h 25.35715 25.35714 v 8.57143 8.57143 h -25.35714 -25.35715 z"
       id="path3737"
       inkscape:connector-curvature="0"
       transform="scale(0.26458333)" />
    <rect
       style="fill:url(#linearGradient4552);fill-opacity:1;stroke-width:0.26458332"
       id="rect4544"
       width="13.701636"
       height="3.0238097"
       x="64.822914"
       y="114.62649" />
  </g>
</svg>
